<svg width="45" height="44" viewBox="0 0 45 44" fill="none" xmlns="http://www.w3.org/2000/svg">
<path d="M22.5025 1.88879e-06C10.0698 -0.00504212 0 10.0931 0 22.5568C0 32.4128 6.2993 40.7909 15.0721 43.8677C16.2535 44.1653 16.0725 43.323 16.0725 42.748V38.8389C9.25036 39.6409 8.97386 35.1113 8.51637 34.3547C7.59133 32.7709 5.40442 32.3674 6.05798 31.6108C7.61144 30.8088 9.19506 31.8126 11.0301 34.5313C12.3573 36.5035 14.9464 36.1706 16.2585 35.8427C16.5451 34.6574 17.1584 33.5981 18.003 32.776C10.9345 31.5049 7.98849 27.1771 7.98849 22.0322C7.98849 19.5354 8.80796 17.2404 10.4167 15.3893C9.39113 12.3376 10.5122 9.72485 10.6631 9.33646C13.584 9.07417 16.6205 11.4348 16.8568 11.6214C18.5158 11.1725 20.4111 10.9354 22.5327 10.9354C24.6643 10.9354 26.5646 11.1826 28.2387 11.6365C28.8068 11.2027 31.6222 9.17505 34.3369 9.42221C34.4827 9.8106 35.5787 12.3629 34.6135 15.3741C36.2423 17.2303 37.0718 19.5455 37.0718 22.0474C37.0718 27.2023 34.1057 31.5351 27.0171 32.7861C27.6243 33.3851 28.1063 34.0996 28.4352 34.8877C28.7641 35.6758 28.9331 36.5217 28.9325 37.3761V43.0506C28.9727 43.5046 28.9325 43.9535 29.6866 43.9535C38.5901 40.9422 45 32.5036 45 22.5618C45 10.0931 34.9251 1.88879e-06 22.5025 1.88879e-06V1.88879e-06Z" fill="#2D9CDB"/>
</svg>
